<?xml version="1.0" encoding="UTF-8" standalone="no"?>
<svg
   version="1.2"
   width="88.309998mm"
   height="89.480003mm"
   viewBox="0 0 8830.9994 8948.0002"
   preserveAspectRatio="xMidYMid"
   fill-rule="evenodd"
   stroke-width="28.222"
   stroke-linejoin="round"
   xml:space="preserve"
   id="svg1855"
   sodipodi:docname="ElephantHeads8a.svg"
   inkscape:version="1.2.2 (732a01da63, 2022-12-09, custom)"
   xmlns:inkscape="http://www.inkscape.org/namespaces/inkscape"
   xmlns:sodipodi="http://sodipodi.sourceforge.net/DTD/sodipodi-0.dtd"
   xmlns="http://www.w3.org/2000/svg"
   xmlns:svg="http://www.w3.org/2000/svg"
   xmlns:ooo="http://xml.openoffice.org/svg/export"><sodipodi:namedview
   id="namedview1857"
   pagecolor="#ffffff"
   bordercolor="#000000"
   borderopacity="0.25"
   inkscape:showpageshadow="2"
   inkscape:pageopacity="0.0"
   inkscape:pagecheckerboard="0"
   inkscape:deskcolor="#d1d1d1"
   inkscape:document-units="mm"
   showgrid="false"
   inkscape:zoom="1.4761864"
   inkscape:cx="277.06528"
   inkscape:cy="170.03273"
   inkscape:window-width="1920"
   inkscape:window-height="1031"
   inkscape:window-x="0"
   inkscape:window-y="25"
   inkscape:window-maximized="1"
   inkscape:current-layer="layer1" />
 <defs
   class="ClipPathGroup"
   id="defs1797">
  <clipPath
   id="presentation_clip_path"
   clipPathUnits="userSpaceOnUse">
   <rect
   x="0"
   y="0"
   width="19196"
   height="11401"
   id="rect1791" />
  </clipPath>
  <clipPath
   id="presentation_clip_path_shrink"
   clipPathUnits="userSpaceOnUse">
   <rect
   x="19"
   y="11"
   width="19158"
   height="11379"
   id="rect1794" />
  </clipPath>
 </defs>
 <defs
   class="TextShapeIndex"
   id="defs1801">
  <g
   ooo:slide="id1"
   ooo:id-list="id3"
   id="g1799" />
 </defs>
 <defs
   class="EmbeddedBulletChars"
   id="defs1833">
  <g
   id="bullet-char-template-57356"
   transform="matrix(4.8828125e-4,0,0,-4.8828125e-4,0,0)">
   <path
   d="M 580,1141 1163,571 580,0 -4,571 Z"
   id="path1803" />
  </g>
  <g
   id="bullet-char-template-57354"
   transform="matrix(4.8828125e-4,0,0,-4.8828125e-4,0,0)">
   <path
   d="M 8,1128 H 1137 V 0 H 8 Z"
   id="path1806" />
  </g>
  <g
   id="bullet-char-template-10146"
   transform="matrix(4.8828125e-4,0,0,-4.8828125e-4,0,0)">
   <path
   d="M 174,0 602,739 174,1481 1456,739 Z M 1358,739 309,1346 659,739 Z"
   id="path1809" />
  </g>
  <g
   id="bullet-char-template-10132"
   transform="matrix(4.8828125e-4,0,0,-4.8828125e-4,0,0)">
   <path
   d="M 2015,739 1276,0 H 717 l 543,543 H 174 v 393 h 1086 l -543,545 h 557 z"
   id="path1812" />
  </g>
  <g
   id="bullet-char-template-10007"
   transform="matrix(4.8828125e-4,0,0,-4.8828125e-4,0,0)">
   <path
   d="m 0,-2 c -7,16 -16,29 -25,39 l 381,530 c -94,256 -141,385 -141,387 0,25 13,38 40,38 9,0 21,-2 34,-5 21,4 42,12 65,25 l 27,-13 111,-251 280,301 64,-25 24,25 c 21,-10 41,-24 62,-43 C 886,937 835,863 770,784 769,783 710,716 594,584 L 774,223 c 0,-27 -21,-55 -63,-84 l 16,-20 C 717,90 699,76 672,76 641,76 570,178 457,381 L 164,-76 c -22,-34 -53,-51 -92,-51 -42,0 -63,17 -64,51 -7,9 -10,24 -10,44 0,9 1,19 2,30 z"
   id="path1815" />
  </g>
  <g
   id="bullet-char-template-10004"
   transform="matrix(4.8828125e-4,0,0,-4.8828125e-4,0,0)">
   <path
   d="M 285,-33 C 182,-33 111,30 74,156 52,228 41,333 41,471 c 0,78 14,145 41,201 34,71 87,106 158,106 53,0 88,-31 106,-94 l 23,-176 c 8,-64 28,-97 59,-98 l 735,706 c 11,11 33,17 66,17 42,0 63,-15 63,-46 V 965 c 0,-36 -10,-64 -30,-84 L 442,47 C 390,-6 338,-33 285,-33 Z"
   id="path1818" />
  </g>
  <g
   id="bullet-char-template-9679"
   transform="matrix(4.8828125e-4,0,0,-4.8828125e-4,0,0)">
   <path
   d="M 813,0 C 632,0 489,54 383,161 276,268 223,411 223,592 c 0,181 53,324 160,431 106,107 249,161 430,161 179,0 323,-54 432,-161 108,-107 162,-251 162,-431 0,-180 -54,-324 -162,-431 C 1136,54 992,0 813,0 Z"
   id="path1821" />
  </g>
  <g
   id="bullet-char-template-8226"
   transform="matrix(4.8828125e-4,0,0,-4.8828125e-4,0,0)">
   <path
   d="m 346,457 c -73,0 -137,26 -191,78 -54,51 -81,114 -81,188 0,73 27,136 81,188 54,52 118,78 191,78 73,0 134,-26 185,-79 51,-51 77,-114 77,-187 0,-75 -25,-137 -76,-188 -50,-52 -112,-78 -186,-78 z"
   id="path1824" />
  </g>
  <g
   id="bullet-char-template-8211"
   transform="matrix(4.8828125e-4,0,0,-4.8828125e-4,0,0)">
   <path
   d="M -4,459 H 1135 V 606 H -4 Z"
   id="path1827" />
  </g>
  <g
   id="bullet-char-template-61548"
   transform="matrix(4.8828125e-4,0,0,-4.8828125e-4,0,0)">
   <path
   d="m 173,740 c 0,163 58,303 173,419 116,115 255,173 419,173 163,0 302,-58 418,-173 116,-116 174,-256 174,-419 0,-163 -58,-303 -174,-418 C 1067,206 928,148 765,148 601,148 462,206 346,322 231,437 173,577 173,740 Z"
   id="path1830" />
  </g>
 </defs>
 
 
<g
   inkscape:groupmode="layer"
   id="layer1"
   inkscape:label="Layer 1"><path
     fill="#100f0d"
     stroke="none"
     d="m 6068,4328 c 18,-16 41,-26 63,-35 22,-9 45,-15 68,-21 46,-12 92,-20 139,-26 94,-12 188,-16 283,-14 94,1 188,9 281,25 47,9 93,19 139,35 22,8 45,17 65,29 11,6 21,13 30,22 8,8 16,19 18,30 -5,-10 -14,-18 -23,-24 -10,-6 -20,-10 -31,-14 -22,-8 -44,-13 -66,-17 -45,-9 -91,-14 -137,-18 -92,-9 -185,-12 -277,-14 -93,-1 -186,-1 -278,2 -46,3 -93,5 -139,10 -23,2 -46,5 -68,9 -12,3 -23,5 -34,8 -11,3 -22,7 -33,13 z m -69,-684 c 83,-74 181,-132 286,-172 106,-40 221,-61 336,-58 115,2 230,31 333,81 102,49 192,121 263,207 -99,-51 -195,-97 -295,-128 -100,-31 -201,-48 -304,-51 -102,-3 -205,9 -308,31 -103,22 -205,55 -311,90 z m 4390,-583 c -68,-45 -143,-78 -219,-105 -76,-27 -154,-48 -231,-68 -156,-39 -312,-70 -460,-120 -74,-24 -145,-54 -208,-93 -48,-30 -90,-65 -123,-106 65,-41 124,-74 164,-101 15,-1 30,-2 44,-3 82,-5 164,-8 246,-7 163,2 327,15 487,47 41,8 80,18 120,28 39,11 79,22 117,36 77,27 153,58 225,98 67,38 131,82 190,133 38,49 74,100 105,154 -104,134 -186,253 -251,361 -10,-28 -22,-55 -38,-81 -40,-70 -101,-128 -168,-173 z m -213,393 c -130,-124 -283,-223 -439,-311 -156,-89 -318,-166 -477,-245 -80,-40 -159,-80 -234,-124 -32,-19 -63,-39 -90,-61 40,-31 82,-60 122,-87 47,55 104,99 165,132 75,40 153,67 232,89 158,42 316,64 472,94 78,15 155,32 230,54 76,22 150,50 217,89 68,40 129,91 172,157 17,26 32,55 44,84 -104,174 -164,318 -199,439 -13,-35 -28,-68 -46,-100 -45,-78 -104,-148 -169,-210 z m -166,499 c -59,-77 -125,-149 -194,-217 -69,-68 -141,-132 -215,-195 -148,-124 -303,-240 -457,-355 -77,-57 -154,-114 -228,-174 -37,-29 -73,-60 -105,-91 -16,-16 -31,-32 -42,-48 -1,-1 -1,-1 -2,-2 27,-32 58,-62 89,-91 1,0 2,1 3,2 39,30 80,54 120,75 82,43 164,79 246,115 164,71 328,140 486,219 158,79 313,168 447,283 66,58 127,123 175,197 21,33 39,69 54,105 -34,120 -45,216 -54,298 -14,128 -24,217 -129,308 -6,-61 -22,-122 -46,-179 -37,-90 -89,-173 -148,-250 z m -434,277 c -76,-161 -177,-308 -286,-448 -109,-139 -227,-272 -344,-403 -58,-66 -117,-131 -171,-198 -26,-34 -52,-68 -73,-102 -11,-18 -20,-35 -27,-51 -1,-3 -2,-6 -3,-9 9,-20 20,-41 31,-60 13,13 25,25 38,36 38,34 77,64 117,93 79,58 159,111 239,165 159,107 318,215 470,331 76,58 150,118 221,182 71,64 139,131 201,204 61,73 116,152 157,238 26,56 45,116 54,178 -89,76 -243,155 -519,259 -1,-55 -7,-110 -19,-163 -18,-87 -49,-171 -86,-252 z m -493,577 c 23,-74 33,-153 31,-231 -1,-79 -14,-157 -35,-232 -21,-76 -50,-149 -84,-220 -66,-141 -150,-273 -228,-405 -40,-65 -78,-131 -108,-198 -6,-15 -12,-29 -17,-43 5,-88 3,-176 -4,-266 -2,-17 -2,-33 -1,-49 21,28 43,54 65,79 60,67 122,130 184,193 124,125 247,250 362,382 114,132 221,271 303,425 41,77 75,158 98,243 14,53 23,107 27,162 -74,28 -155,57 -246,88 -131,46 -255,94 -371,144 9,-24 17,-47 24,-72 z m -1217,867 c 47,-25 92,-54 127,-87 118,195 611,522 1024,575 317,40 607,-87 756,-183 -27,41 -66,86 -116,131 -439,189 -811,151 -1055,78 -355,-105 -622,-333 -736,-514 z m 728,540 c 115,34 258,61 422,61 168,0 358,-28 565,-105 -102,72 -235,133 -396,157 -371,55 -1083,-60 -1483,-585 43,-14 92,-33 139,-56 117,186 391,420 753,528 z M 5901,5190 c 34,-23 72,-40 111,-54 39,-14 79,-24 120,-32 83,-16 168,-24 253,-28 43,-2 86,-4 128,-4 44,-1 85,0 127,2 84,5 168,17 249,38 81,21 160,50 234,90 73,40 142,89 200,151 29,31 54,65 76,101 1,1 1,1 1,2 14,80 24,159 30,223 -5,-9 -11,-18 -17,-27 -26,-37 -56,-71 -88,-103 -33,-32 -68,-61 -106,-87 -38,-25 -77,-48 -118,-68 -42,-20 -85,-36 -128,-50 -88,-26 -179,-41 -270,-44 -46,-1 -91,-1 -136,2 l -34,3 -33,4 c -22,2 -44,4 -66,7 -87,10 -175,23 -262,41 -87,19 -176,41 -257,87 -41,22 -78,53 -106,89 -17,23 -32,47 -44,72 -15,-82 -26,-165 -31,-246 22,-31 45,-61 71,-88 29,-31 61,-58 96,-81 z m -159,-108 c 14,-20 29,-40 45,-59 16,-19 33,-36 50,-53 36,-33 75,-60 118,-81 43,-21 89,-37 135,-49 47,-12 95,-21 144,-26 24,-4 49,-6 73,-8 25,-2 49,-4 74,-5 49,-2 99,-3 149,-2 h 37 l 37,2 37,1 37,2 c 49,2 97,9 145,17 47,8 94,21 140,35 90,31 176,76 247,140 40,36 76,77 106,123 15,47 29,93 42,138 9,34 18,71 26,109 -9,-14 -18,-28 -27,-41 -53,-73 -121,-136 -198,-185 -38,-24 -77,-47 -119,-65 -41,-19 -84,-35 -127,-48 -44,-13 -88,-24 -132,-31 -22,-5 -45,-7 -67,-10 -23,-3 -45,-5 -68,-7 -45,-2 -90,-3 -134,-2 -44,1 -89,3 -133,7 -89,7 -178,19 -265,44 -43,13 -86,28 -128,48 -41,20 -80,45 -115,75 -35,30 -65,65 -89,103 -19,31 -35,62 -49,95 -6,-90 -4,-179 7,-264 0,-1 1,-2 2,-3 z m -430,495 c -73,-41 -118,-84 -121,-118 11,-44 87,-340 207,-587 20,-40 39,-77 59,-113 59,-38 116,-80 171,-125 82,-66 159,-139 225,-223 11,-14 21,-29 31,-43 -5,25 -12,52 -20,80 -169,247 -434,812 -384,1199 -55,-17 -114,-40 -168,-70 z m 11,98 c -118,184 -404,408 -759,509 -251,71 -627,107 -1046,-95 -42,-38 -75,-75 -99,-109 149,97 438,222 754,182 426,-54 916,-381 1015,-569 38,31 86,59 135,82 z M 3592,4228 c 38,-79 87,-153 142,-222 55,-69 115,-134 178,-196 127,-124 265,-236 398,-357 67,-61 133,-124 191,-198 25,-31 48,-65 67,-101 4,28 6,57 3,87 -5,64 -8,127 -8,189 -7,30 -19,60 -32,91 -30,67 -69,133 -108,198 -78,132 -162,264 -228,405 -34,71 -63,144 -84,220 -21,75 -34,153 -35,232 -2,78 8,157 30,231 8,25 16,50 26,74 -116,-51 -240,-100 -372,-146 -95,-33 -180,-63 -256,-92 -3,-55 -1,-110 8,-164 13,-87 41,-172 80,-251 z m -554,-753 c 137,-113 294,-199 454,-276 161,-76 327,-142 493,-211 83,-34 166,-69 249,-110 40,-20 81,-43 120,-72 23,22 45,44 66,67 -12,15 -27,31 -43,46 -33,32 -70,61 -107,91 -76,58 -155,114 -233,170 -158,113 -316,226 -468,349 -75,61 -149,125 -220,192 -71,67 -138,138 -199,214 -61,77 -116,159 -154,249 -23,52 -39,107 -47,163 -70,-80 -80,-162 -92,-273 -9,-81 -20,-178 -54,-297 15,-37 34,-73 56,-106 49,-74 111,-139 179,-196 z m -222,-391 c 67,-39 141,-67 217,-89 75,-22 152,-39 230,-54 156,-30 314,-52 472,-94 79,-22 157,-49 232,-89 59,-32 116,-75 162,-128 48,33 98,69 146,108 -26,20 -56,38 -86,56 -76,43 -156,81 -237,120 -162,76 -326,151 -485,237 -158,85 -313,181 -447,304 -66,62 -127,130 -173,209 -19,32 -35,66 -48,101 -35,-121 -94,-265 -199,-440 12,-29 27,-58 44,-84 43,-66 104,-117 172,-157 z m 48,-515 c 38,-14 78,-25 117,-36 40,-10 79,-20 120,-28 160,-32 324,-45 487,-47 82,-1 164,2 246,7 14,1 28,2 42,3 40,27 98,62 163,104 -32,40 -73,74 -120,103 -63,39 -134,69 -208,93 -148,50 -304,81 -460,120 -77,20 -155,41 -231,68 -76,27 -151,60 -219,105 -67,45 -128,103 -168,173 -16,26 -28,53 -38,81 -65,-108 -147,-227 -251,-361 31,-53 66,-104 104,-152 58,-52 123,-96 191,-135 72,-40 148,-71 225,-98 z m 889,-397 c 126,1 252,15 373,45 58,14 113,34 168,55 -160,24 -328,62 -415,99 -14,-1 -28,-1 -42,-1 -84,-1 -168,1 -252,6 -167,11 -334,34 -496,76 -41,10 -81,23 -121,35 -40,14 -80,27 -119,43 -77,32 -153,69 -224,114 -40,26 -79,53 -116,83 185,-207 428,-366 697,-488 55,-13 111,-25 168,-34 125,-21 252,-33 379,-33 z m 700,-28 c 28,33 52,68 73,105 -27,1 -57,3 -89,6 -35,-17 -71,-32 -108,-46 -62,-21 -125,-40 -189,-51 -129,-26 -259,-33 -388,-27 -129,7 -257,26 -382,54 -31,6 -62,14 -92,22 287,-122 600,-205 900,-264 34,14 67,30 98,49 67,41 127,93 177,152 z m 105,-52 c -6,21 -12,43 -16,66 -16,-18 -32,-36 -50,-52 -60,-57 -129,-104 -204,-138 -25,-12 -51,-22 -78,-31 172,-32 339,-56 495,-75 -18,15 -34,32 -50,49 -44,53 -76,115 -97,181 z m -286,2852 c -42,-20 -85,-39 -129,-58 -9,-27 -17,-55 -23,-82 -18,-75 -23,-151 -17,-227 11,-151 68,-295 140,-428 73,-134 162,-258 249,-386 29,-43 58,-86 86,-132 8,56 20,110 36,163 -135,270 -330,679 -342,1150 z m 559,-2981 c -58,82 -101,174 -121,274 -17,89 -13,182 13,271 -5,-6 -10,-11 -14,-16 -15,-64 -36,-127 -66,-185 -9,-19 -20,-37 -31,-55 -1,-3 -1,-7 -2,-10 -1,-14 -2,-29 -2,-44 0,-30 4,-61 10,-91 12,-60 35,-119 70,-171 21,-30 46,-58 76,-81 63,-7 123,-13 181,-19 -6,5 -11,10 -17,15 -36,34 -69,72 -97,112 z m 35,227 c -39,111 -52,233 -37,352 3,22 7,43 12,65 -20,-28 -37,-58 -50,-89 -38,-85 -52,-180 -40,-274 11,-95 46,-187 97,-269 25,-42 54,-81 87,-117 8,-8 16,-16 24,-23 69,-7 134,-13 195,-18 -36,23 -69,49 -99,78 -85,81 -150,183 -189,295 z m 45,263 c -8,35 -13,71 -15,107 -2,-9 -4,-18 -6,-27 -21,-109 -15,-223 15,-331 31,-107 87,-209 164,-292 33,-36 71,-68 111,-95 39,-3 76,-6 110,-8 15,-2 29,-3 43,-4 -90,90 -176,184 -250,288 -76,109 -142,229 -172,362 z m 360,-457 c -19,22 -38,46 -56,69 -17,25 -35,49 -51,75 -31,51 -60,106 -77,166 -18,61 -23,126 -12,187 9,61 28,117 44,171 17,55 31,110 39,165 15,97 10,197 -6,295 -10,10 -20,20 -30,30 -2,2 -5,5 -8,7 1,-3 1,-6 2,-10 1,-10 0,-20 -1,-30 0,-5 0,-10 -1,-14 4,-67 -25,-114 -44,-165 -17,-47 -44,-93 -75,-137 -4,-7 -8,-14 -12,-20 -16,-44 -28,-88 -35,-134 -9,-63 -7,-127 3,-190 22,-127 80,-247 149,-358 68,-107 149,-206 234,-300 49,-4 91,-7 127,-11 -24,24 -48,48 -72,73 -41,42 -80,85 -118,131 z m 2127,1872 c 15,-23 31,-46 48,-69 -90,340 2,493 139,721 57,93 121,199 183,338 -73,-49 -145,-100 -212,-156 -41,-37 -83,-73 -119,-114 -37,-41 -71,-84 -100,-130 -21,-32 -38,-65 -53,-100 -1,-48 2,-91 6,-131 13,-132 51,-255 108,-359 z m -1391,283 c 6,-2 12,-3 18,-5 13,-3 26,-5 38,-7 26,-5 51,-9 77,-12 51,-8 103,-13 154,-18 51,-5 103,-9 154,-12 52,-2 103,-4 154,-4 51,0 103,1 154,5 51,3 102,9 152,17 99,17 198,44 288,96 -1,2 -1,4 -1,7 -8,74 -10,163 1,263 l -40,198 c -66,-62 -145,-113 -230,-147 -57,-23 -116,-40 -176,-52 -60,-12 -121,-18 -182,-20 -61,-2 -122,0 -182,7 -61,7 -121,18 -179,33 -59,15 -117,34 -172,59 -28,12 -55,26 -81,42 -17,10 -33,22 -48,35 94,-198 113,-353 91,-482 3,-1 6,-2 10,-3 z m 1189,59 c -38,-35 -83,-62 -129,-85 -48,-22 -99,-39 -150,-52 -52,-13 -104,-21 -157,-27 -52,-5 -105,-7 -158,-7 -53,0 -105,2 -158,7 -52,5 -104,11 -156,21 -51,9 -103,20 -153,34 -26,7 -51,14 -75,23 -13,5 -25,9 -37,15 -6,2 -12,5 -18,8 -3,2 -6,3 -9,5 -7,-44 -19,-85 -35,-123 l 2,-1 c 6,-4 13,-6 19,-10 7,-3 13,-6 20,-9 26,-11 54,-21 81,-30 55,-18 111,-33 167,-46 57,-12 114,-23 171,-30 57,-8 114,-15 171,-17 58,-4 115,-4 172,-1 57,3 114,11 169,24 55,14 109,33 158,62 45,26 85,62 117,105 -6,25 -10,51 -11,77 -1,17 -1,33 0,49 -1,3 -1,5 -1,8 z m -1275,423 c 7,-3 13,-7 20,-10 l 20,-9 c 27,-11 55,-22 83,-30 56,-18 114,-32 172,-43 58,-10 116,-18 175,-23 58,-4 117,-6 175,-4 117,3 234,21 345,58 89,29 172,73 249,129 14,33 50,122 90,231 -73,-71 -163,-124 -257,-160 -50,-19 -101,-33 -153,-43 -52,-10 -104,-17 -156,-20 -103,-6 -205,-6 -309,1 -25,2 -51,5 -77,8 -26,3 -51,6 -77,11 -26,5 -51,11 -77,16 -25,7 -50,14 -75,23 -50,17 -99,38 -145,66 -45,28 -86,63 -121,103 -19,23 -36,47 -51,72 18,-92 48,-178 93,-257 21,-37 40,-72 57,-107 6,-4 12,-8 19,-12 z m -179,-758 c 81,108 150,219 154,369 -2,2 -3,5 -4,7 -22,44 -50,87 -82,126 -31,40 -64,79 -100,116 l -27,28 -27,27 c -18,18 -37,36 -56,54 -37,36 -76,71 -115,106 34,-59 68,-112 98,-162 135,-215 227,-363 159,-671 z m -701,-371 c -6,40 -10,84 2,131 5,23 18,49 29,65 8,12 17,23 26,34 -5,2 -9,5 -14,7 -9,5 -19,11 -27,20 -8,8 -15,18 -20,29 -4,10 -8,21 -9,32 -3,21 0,41 4,60 8,38 24,71 43,102 19,30 41,58 65,84 21,21 43,40 68,56 14,23 25,39 26,41 0,0 51,77 108,93 79,69 174,155 143,281 l 6,1 c -9,14 -18,29 -27,44 -20,-50 -54,-94 -97,-137 -50,-61 -114,-116 -178,-169 -13,-14 -26,-28 -39,-42 -122,-134 -199,-249 -242,-351 -32,-178 -1,-364 86,-519 48,-58 104,-113 162,-168 -31,61 -60,124 -84,190 -12,37 -23,75 -31,116 z m 120,547 c -18,-28 -34,-58 -48,-88 -14,-30 -26,-61 -31,-91 -5,-30 -2,-59 14,-73 4,-4 8,-7 15,-10 3,-2 6,-4 9,-5 3,-1 6,-3 9,-4 3,-1 6,-2 9,-2 19,18 38,36 57,52 18,17 37,33 55,49 -30,-10 -59,-8 -82,16 -46,47 -13,133 20,196 -9,-13 -18,-26 -27,-40 z m 324,99 c 32,63 48,134 48,206 0,18 -1,35 -2,52 -28,-77 -91,-136 -143,-182 -23,-128 -10,-124 -4,-188 1,-12 -3,-27 -10,-43 45,47 84,98 111,155 z m 103,-499 c 1,2 2,4 2,6 l -3,1 c 3,5 6,10 9,15 152,410 88,554 -53,783 9,-32 17,-65 21,-98 9,-76 -1,-156 -29,-230 -29,-74 -74,-139 -124,-198 -50,-58 -106,-110 -158,-162 -26,-26 -51,-52 -73,-79 -10,-13 -20,-26 -29,-40 -8,-14 -12,-23 -15,-36 -4,-17 -4,-37 -2,-57 33,-69 78,-102 136,-100 96,3 213,87 318,195 z m 675,-858 c 0,79 -29,160 -70,233 -41,73 -95,139 -159,196 -22,20 -46,38 -71,55 -11,7 -22,14 -33,20 -20,12 -40,23 -60,34 -17,8 -35,16 -54,23 10,-3 20,-6 30,-10 -43,24 -85,47 -126,73 -35,22 -69,45 -100,77 -4,3 -7,8 -11,13 -3,4 -7,8 -10,13 l -3,5 c -105,-93 -220,-161 -323,-165 -25,-1 -54,3 -83,13 18,-41 37,-81 58,-120 50,0 102,-6 151,-22 58,-18 110,-49 154,-85 44,-37 80,-79 112,-121 32,-43 59,-86 86,-128 26,-42 52,-84 79,-123 28,-38 57,-74 89,-102 33,-29 70,-49 111,-57 41,-8 85,-4 128,6 33,14 60,36 78,65 18,30 27,68 27,107 z m 613,-139 c -15,28 -22,58 -25,88 -27,-28 -58,-51 -92,-70 -54,-28 -115,-45 -177,-46 -62,-1 -124,13 -179,41 -27,13 -53,31 -75,52 -3,4 -7,8 -10,12 -4,-27 -11,-53 -24,-77 -23,-46 -63,-82 -108,-103 l -1,-1 -4,-1 c -4,-2 -8,-3 -13,-4 15,-5 29,-10 43,-14 37,-10 75,-17 113,-23 76,-11 152,-17 229,-17 76,1 152,8 225,27 36,10 71,23 103,43 14,9 28,20 41,32 -19,17 -34,38 -46,61 z m -531,86 c 23,-14 49,-25 75,-34 52,-18 106,-26 161,-25 54,0 108,11 160,30 37,14 73,32 108,54 0,10 0,20 1,30 4,47 16,91 32,133 9,23 20,44 31,65 -16,-14 -34,-27 -52,-39 -65,-45 -141,-76 -222,-85 -80,-9 -162,4 -235,35 -53,22 -102,52 -146,88 11,-21 21,-42 30,-64 16,-42 29,-86 32,-133 1,-12 1,-25 0,-38 8,-6 16,-12 25,-17 z m 1679,658 c 4,10 7,21 11,31 -53,-39 -109,-48 -156,-46 -97,5 -204,62 -304,144 l -4,-7 c -3,-5 -6,-9 -10,-13 -4,-5 -7,-10 -11,-13 -30,-32 -65,-55 -99,-77 -42,-26 -84,-49 -126,-72 10,3 19,6 29,9 -18,-7 -35,-14 -52,-22 -20,-11 -41,-23 -61,-35 -12,-6 -24,-13 -35,-20 -25,-17 -48,-35 -70,-55 -64,-56 -118,-123 -159,-196 -41,-73 -70,-154 -70,-233 0,-39 8,-77 27,-107 18,-30 45,-51 78,-65 45,-11 89,-14 131,-5 42,9 79,31 113,60 34,30 64,66 92,106 28,39 54,82 82,125 27,43 56,87 88,130 32,43 69,86 113,123 44,38 97,70 156,90 58,19 120,25 179,22 22,41 42,84 58,126 z m -382,717 c -25,74 -34,154 -23,230 5,32 12,63 21,92 0,4 -1,8 -2,12 -141,-234 -213,-382 -57,-801 101,-95 213,-165 303,-169 65,-3 115,29 151,98 -15,27 -36,53 -58,80 -13,15 -26,30 -40,45 -4,2 -7,5 -11,8 -7,7 -14,13 -20,21 l -9,10 -8,12 c -1,1 -1,2 -2,3 -46,49 -92,99 -133,155 -46,62 -87,129 -112,204 z m 146,83 c -49,53 -107,121 -136,200 -2,-19 -3,-37 -4,-55 -1,-73 13,-145 42,-209 25,-56 58,-107 96,-154 -1,6 -1,12 0,18 9,65 22,59 2,200 z m 141,-369 c 11,-11 22,-21 33,-32 23,-22 46,-44 68,-67 h 1 c 3,1 6,2 9,3 3,1 6,3 9,4 6,4 11,7 15,11 16,13 20,42 17,72 -4,30 -15,62 -27,92 -13,31 -28,61 -45,90 -8,14 -17,27 -26,41 31,-64 60,-152 13,-197 -19,-18 -43,-23 -67,-17 z m 63,-968 c 4,4 9,8 12,13 4,4 6,8 9,13 -4,60 -1,120 8,179 7,51 20,100 34,148 -10,-21 -21,-41 -33,-61 -37,-67 -77,-131 -118,-195 -37,-56 -74,-111 -112,-166 48,16 96,26 138,39 24,7 45,16 62,30 z m -562,-698 c -9,-19 -19,-38 -29,-57 12,8 24,16 37,23 37,20 76,36 115,52 77,30 154,57 227,88 73,32 145,66 202,116 28,24 53,53 70,87 7,13 13,27 17,42 0,7 0,14 0,21 -1,40 -8,80 -17,121 0,-2 0,-4 -1,-7 -3,-20 -12,-40 -24,-56 -23,-34 -54,-60 -85,-81 -64,-43 -130,-73 -194,-104 -64,-30 -126,-59 -182,-96 -56,-36 -104,-82 -136,-151 0,1 0,2 0,2 z m 277,332 c 67,31 135,55 198,82 32,14 62,28 88,47 13,10 24,21 33,35 l 7,10 c 2,4 3,8 5,12 l 2,6 2,7 c 0,1 0,3 1,4 -1,3 -1,5 -2,8 -8,36 -15,73 -20,110 -16,-22 -38,-40 -59,-53 -54,-33 -108,-49 -158,-68 -43,-15 -82,-31 -117,-53 -13,-18 -25,-36 -37,-54 -43,-60 -85,-122 -125,-183 l -7,-12 -6,-10 c -4,-6 -7,-13 -10,-20 -3,-6 -5,-12 -7,-19 7,9 15,18 23,26 56,55 123,93 189,125 z m -2539,592 c 4,-14 7,-28 10,-43 l 8,-43 c 7,-46 10,-92 10,-139 2,-4 4,-9 7,-12 2,-2 4,-4 5,-6 l 6,-6 c 3,-4 8,-6 12,-9 5,-3 8,-6 13,-7 9,-5 20,-8 31,-11 39,-12 84,-19 130,-33 -41,66 -83,133 -123,201 -9,15 -18,30 -27,46 -28,30 -58,61 -89,91 l 2,-8 z m 457,-674 c -1,3 -3,6 -5,9 l -6,11 -14,24 -28,47 c -19,32 -39,63 -59,95 -7,12 -15,24 -23,37 -30,19 -64,32 -101,45 -24,8 -48,16 -73,25 -26,10 -52,20 -78,37 -6,4 -13,8 -19,13 l -9,7 c -3,3 -6,6 -9,9 -3,3 -6,6 -9,10 -5,-44 -13,-88 -22,-131 0,-1 -1,-2 -1,-3 l 2,-4 c 2,-3 4,-6 7,-9 3,-3 5,-6 7,-9 6,-5 11,-11 18,-15 24,-19 53,-33 84,-46 61,-26 127,-49 192,-80 54,-25 108,-56 156,-97 -3,9 -6,17 -10,25 z m -187,-14 c -62,29 -126,58 -188,101 -30,21 -61,46 -83,80 -3,5 -6,11 -9,17 -6,-30 -12,-60 -16,-89 5,-18 11,-35 19,-50 15,-34 37,-62 64,-86 52,-49 120,-83 189,-113 70,-30 144,-56 217,-86 30,-11 59,-24 88,-38 -11,22 -21,45 -29,68 -7,18 -13,37 -18,56 -18,17 -38,32 -58,46 -54,37 -114,65 -176,94 z m 810,1352 c 60,-16 121,-29 182,-38 61,-9 123,-14 185,-14 62,0 123,4 184,14 61,10 121,25 179,45 59,21 115,46 169,77 41,23 79,49 117,77 -18,34 -32,68 -42,99 l 6,2 c -8,19 -14,38 -19,58 -23,-47 -60,-89 -103,-122 -48,-36 -104,-63 -161,-81 -116,-36 -237,-42 -356,-37 -118,7 -236,28 -349,61 -57,17 -113,38 -167,62 -13,7 -26,13 -39,20 l -20,11 -19,11 c -13,8 -25,16 -37,26 -20,-47 -44,-90 -71,-131 -45,-84 -114,-180 -193,-268 -4,-7 -9,-13 -13,-20 l -4,2 c -14,-15 -28,-30 -43,-44 5,-12 13,-24 22,-36 23,-27 54,-52 86,-74 65,-46 135,-86 202,-130 67,-45 134,-92 191,-150 28,-29 53,-61 73,-96 3,-6 6,-11 9,-16 3,-5 6,-9 9,-13 6,-10 12,-20 18,-30 58,-29 115,-55 175,-72 70,-20 143,-29 214,-21 72,9 141,33 206,67 41,22 80,47 118,75 2,3 3,7 5,10 20,35 46,67 74,96 56,58 123,105 190,150 68,44 137,84 202,130 32,22 63,47 86,74 9,12 18,24 22,35 -11,11 -22,21 -33,32 -38,30 -73,64 -104,103 -7,-23 -17,-46 -28,-67 -19,-38 -45,-74 -72,-107 -57,-66 -124,-121 -197,-167 -74,-47 -153,-82 -235,-111 -41,-13 -83,-25 -125,-34 -21,-5 -42,-9 -64,-12 -10,-2 -21,-4 -32,-5 l -17,-3 -17,-1 c -91,-5 -181,10 -264,38 -83,27 -161,66 -234,112 -72,47 -139,101 -199,162 -30,30 -58,62 -84,96 -26,34 -49,69 -70,106 58,-62 119,-118 185,-167 65,-50 134,-95 206,-133 71,-37 146,-69 223,-90 76,-22 154,-34 230,-29 10,1 19,2 29,3 9,1 19,3 29,4 20,3 40,7 59,11 40,8 79,18 118,29 77,23 152,52 224,89 71,38 140,82 201,135 30,27 59,56 84,88 13,16 24,33 34,51 3,4 5,8 7,13 -32,40 -60,85 -85,133 -14,22 -26,44 -37,65 -33,-33 -68,-64 -106,-91 -52,-37 -109,-70 -168,-95 l -45,-18 c -16,-5 -31,-10 -47,-15 -15,-5 -31,-8 -47,-12 -15,-5 -31,-8 -47,-11 -64,-12 -129,-17 -193,-17 -65,1 -130,6 -193,17 -63,12 -126,27 -187,49 -61,20 -120,46 -176,76 -28,15 -56,32 -82,50 -26,19 -51,39 -72,62 50,-37 108,-64 165,-88 58,-24 118,-43 178,-60 z M 8183,2266 c 14,29 25,59 36,89 l 14,46 c 5,15 8,31 12,46 13,62 18,125 12,187 -1,18 -4,35 -7,53 -50,62 -91,133 -110,220 -12,50 -28,95 -26,161 -2,11 -4,23 -4,35 -2,39 9,81 29,115 l 3,-2 c 8,26 19,55 32,86 132,318 165,478 51,679 -109,193 -451,367 -489,634 -14,-26 -29,-50 -43,-74 -29,-127 76,-242 152,-326 2,-1 3,-3 5,-4 51,-25 91,-92 91,-92 1,-3 12,-19 25,-42 23,-17 45,-38 65,-59 23,-27 44,-56 62,-87 17,-31 32,-65 39,-103 3,-19 4,-39 1,-60 -2,-11 -6,-22 -10,-32 -6,-10 -13,-20 -22,-28 -8,-9 -18,-14 -27,-19 -2,0 -3,-1 -4,-2 17,-20 33,-41 48,-66 3,-5 5,-10 8,-14 3,-6 6,-12 8,-18 4,-12 8,-24 10,-35 4,-24 4,-47 3,-69 -4,-43 -14,-83 -27,-121 -16,-49 -37,-95 -60,-140 -9,-53 -17,-106 -19,-160 -2,-59 1,-117 10,-175 9,-57 24,-113 42,-170 16,-57 36,-115 43,-179 4,-32 3,-64 -1,-97 -3,-16 -4,-32 -9,-48 -4,-15 -8,-31 -14,-46 -22,-61 -53,-116 -87,-167 -70,-103 -153,-192 -237,-278 -21,-22 -43,-42 -65,-64 -16,-16 -33,-32 -50,-48 48,5 107,9 177,15 3,0 7,0 10,0 83,92 161,188 228,290 35,55 68,110 95,169 z m 102,-64 c 29,104 35,214 17,319 -4,-29 -10,-56 -17,-84 -5,-16 -9,-32 -15,-48 l -17,-47 c -14,-30 -27,-61 -43,-90 -30,-58 -67,-113 -105,-167 -73,-99 -156,-191 -244,-278 48,4 100,8 155,13 39,26 74,56 105,90 77,83 133,185 164,292 z m 59,-233 c 51,80 88,171 100,264 13,92 0,187 -38,270 -8,18 -17,35 -26,51 -9,8 -17,15 -25,22 2,-11 4,-22 6,-34 15,-119 2,-241 -37,-352 -39,-112 -104,-214 -189,-295 -28,-27 -59,-52 -92,-73 61,5 127,11 195,18 6,5 11,10 17,16 33,34 63,73 89,113 z m 228,138 c 6,30 10,61 10,91 0,15 -1,30 -2,44 -1,3 -2,7 -2,10 -11,18 -22,36 -31,55 -24,47 -43,97 -57,149 -3,2 -6,5 -9,8 7,-29 12,-58 14,-87 4,-51 0,-102 -10,-151 -21,-99 -66,-190 -124,-269 -30,-39 -63,-76 -99,-109 -3,-2 -6,-4 -9,-7 58,6 118,12 180,19 26,22 50,48 69,76 35,52 58,111 70,171 z m 375,2042 c 72,133 128,277 140,428 6,76 1,152 -17,227 -6,27 -14,53 -23,80 -44,19 -87,38 -129,57 -13,-466 -204,-872 -339,-1141 18,-51 31,-102 42,-155 24,41 50,80 77,118 87,128 176,252 249,386 z M 8698,2106 c -18,16 -34,34 -50,52 -4,-23 -10,-45 -16,-66 -21,-66 -53,-128 -98,-181 -13,-15 -28,-30 -43,-44 152,19 313,43 479,74 -23,8 -46,17 -68,27 -75,34 -144,81 -204,138 z m 1979,618 c -36,-28 -74,-55 -112,-80 -71,-45 -147,-82 -224,-114 -39,-16 -79,-29 -119,-43 -40,-12 -80,-25 -121,-35 -162,-42 -329,-65 -496,-76 -84,-5 -168,-7 -252,-6 -14,0 -28,0 -43,1 -89,-38 -265,-77 -430,-101 2,0 3,-1 4,-2 14,-7 29,-12 43,-18 15,-5 29,-12 44,-16 29,-9 59,-20 89,-27 122,-31 248,-43 375,-42 127,1 254,16 380,37 48,9 96,19 144,30 278,123 529,283 718,492 z M 9437,2124 c -130,-8 -261,-2 -390,23 -33,6 -64,15 -96,23 -17,4 -32,10 -48,15 -15,6 -31,10 -47,17 -38,15 -74,33 -111,52 -28,-2 -56,-4 -81,-5 21,-37 45,-72 73,-105 50,-59 110,-111 177,-152 29,-17 58,-32 88,-45 291,56 592,135 870,248 -17,-4 -35,-9 -53,-13 -125,-28 -253,-50 -382,-58 z M 6116,1541 c -34,32 -65,66 -97,97 -32,32 -65,62 -101,88 -36,25 -74,47 -115,65 -40,18 -82,32 -124,43 -42,11 -84,18 -126,24 12,-11 24,-22 37,-33 l 65,-56 16,-14 17,-15 34,-30 c 43,-41 85,-85 123,-129 39,-43 75,-84 114,-115 38,-32 82,-53 131,-68 12,-3 24,-8 37,-11 l 39,-7 c 6,-1 12,-3 19,-4 l 20,-2 41,-4 c 103,-9 210,-6 317,-1 v 2 c 116,-5 232,-7 343,8 l 41,6 21,3 20,5 39,10 c 7,2 13,4 19,6 l 19,7 19,7 9,4 9,4 35,17 c 12,6 23,14 34,21 5,4 11,7 16,11 l 16,12 16,13 8,6 7,7 30,28 c 20,20 40,40 59,62 l 60,66 c 21,23 41,45 63,67 l 33,33 35,31 c 20,18 38,34 57,50 -35,-5 -71,-12 -105,-21 -43,-11 -85,-25 -125,-43 -40,-18 -79,-40 -115,-65 -36,-26 -69,-56 -101,-88 -32,-31 -63,-65 -97,-97 -33,-32 -71,-60 -115,-78 -43,-17 -90,-22 -135,-19 46,1 91,9 131,29 41,20 75,49 105,82 30,34 58,70 89,104 30,35 62,69 98,99 36,30 76,57 117,79 42,23 85,41 130,56 74,25 149,41 226,51 13,12 27,24 39,37 87,79 169,163 239,253 21,28 41,57 58,86 -25,-25 -54,-47 -83,-66 -37,-24 -76,-43 -115,-60 -79,-33 -160,-55 -240,-74 -40,-10 -80,-19 -119,-29 -20,-5 -39,-10 -57,-17 -8,-4 -16,-8 -23,-12 -6,-9 -13,-17 -19,-26 -9,-12 -19,-23 -29,-34 -57,-58 -126,-100 -199,-128 -73,-27 -148,-43 -223,-50 -76,-8 -151,-8 -226,-3 37,4 75,8 111,14 37,5 74,11 110,19 72,16 143,38 207,70 64,31 122,73 166,127 44,53 74,115 95,183 11,35 20,70 30,107 5,18 11,37 18,57 4,10 8,20 14,31 l 4,7 4,7 7,12 c 38,66 79,129 120,192 83,125 169,247 250,371 20,31 40,61 59,92 -14,-1 -28,-3 -41,-7 -39,-9 -76,-28 -112,-53 -70,-52 -130,-130 -190,-211 -31,-41 -61,-82 -95,-124 -34,-40 -71,-81 -117,-115 -45,-34 -100,-62 -159,-69 -59,-9 -117,1 -169,18 l -4,1 -1,1 c -17,8 -34,19 -50,31 -10,-15 -23,-30 -37,-42 -31,-28 -68,-48 -106,-62 -76,-30 -158,-40 -238,-41 -80,-1 -160,9 -238,29 -38,10 -76,23 -113,40 -9,5 -18,9 -27,14 -9,5 -17,10 -25,16 -2,1 -3,2 -4,3 -41,-10 -85,-15 -129,-9 -58,6 -113,31 -158,65 -45,33 -82,73 -115,113 -33,40 -63,82 -92,121 -59,80 -117,156 -186,205 -34,24 -71,42 -109,50 -6,2 -12,3 -18,4 11,-18 21,-36 31,-53 76,-128 155,-254 231,-383 19,-32 38,-65 57,-98 9,-16 18,-33 27,-49 l 10,-19 c 7,-5 15,-10 22,-14 17,-10 34,-17 52,-25 35,-15 70,-28 107,-39 73,-23 147,-40 222,-55 74,-14 149,-27 225,-35 76,-8 151,-14 227,-16 76,-3 152,-2 228,3 75,4 151,13 225,26 149,29 295,76 427,156 -119,-99 -267,-161 -418,-197 -152,-36 -308,-48 -463,-43 -78,3 -156,10 -232,20 -77,11 -154,25 -229,44 -75,19 -149,43 -221,72 -36,15 -71,31 -105,50 -21,13 -42,26 -61,42 l 4,-9 c 3,-5 5,-11 7,-16 17,-42 24,-79 32,-115 7,-37 15,-72 26,-106 1,-3 2,-6 3,-10 6,-3 12,-6 19,-9 33,-15 68,-27 103,-38 69,-22 141,-38 213,-52 72,-13 145,-25 218,-32 72,-8 145,-14 219,-15 73,-3 146,-2 219,2 73,4 145,13 217,27 71,14 141,33 208,62 66,30 128,70 178,125 -40,-63 -101,-112 -166,-148 -67,-37 -138,-63 -211,-81 -147,-37 -298,-45 -447,-42 -150,6 -299,25 -444,60 -73,18 -144,40 -214,69 -34,15 -68,30 -100,50 -2,1 -4,3 -6,4 19,-57 47,-110 85,-156 43,-53 101,-95 166,-127 64,-32 134,-53 206,-69 73,-15 147,-24 221,-30 -74,-5 -150,-6 -225,1 -75,7 -151,23 -223,50 -73,28 -142,70 -198,129 -24,24 -44,52 -62,81 -8,2 -15,4 -22,6 -38,9 -76,17 -115,26 -77,18 -155,39 -230,72 -19,8 -38,17 -56,26 -18,10 -36,21 -54,32 -35,24 -68,52 -95,86 -11,15 -21,30 -30,46 4,-15 8,-29 13,-44 18,-50 46,-97 78,-141 62,-87 139,-167 218,-243 81,-10 162,-27 240,-53 45,-15 89,-33 130,-56 42,-22 81,-49 117,-79 36,-30 69,-64 99,-99 30,-34 58,-70 88,-104 31,-33 65,-62 105,-82 40,-20 86,-28 131,-29 -45,-3 -92,2 -135,19 -44,18 -82,46 -115,78 z M 2954,4352 c 10,-56 29,-111 54,-162 42,-87 99,-165 163,-237 63,-72 133,-139 205,-202 73,-63 149,-122 227,-179 155,-114 317,-219 480,-324 81,-53 163,-105 243,-162 41,-28 81,-57 120,-91 13,-12 27,-24 40,-38 7,10 13,20 19,30 4,69 -32,144 -80,211 -49,69 -109,133 -171,196 -125,125 -259,246 -381,378 -61,67 -119,136 -172,209 -52,74 -99,152 -134,236 -36,83 -60,171 -69,261 -6,54 -5,109 1,163 -311,-118 -465,-203 -545,-289 z m 1054,1975 c -168,-33 -304,-99 -406,-171 201,82 391,111 560,111 157,0 296,-25 410,-57 379,-108 660,-340 776,-524 62,27 125,46 174,58 -215,287 -521,434 -745,508 -322,105 -616,106 -769,75 z m 3375,-334 c -10,-15 -21,-30 -33,-44 -12,-14 -25,-28 -37,-42 -12,-14 -27,-26 -40,-39 -26,-27 -57,-48 -87,-72 -32,-20 -63,-42 -98,-58 -33,-18 -69,-31 -105,-45 l -54,-17 c -10,-3 -19,-5 -28,-7 l -28,-6 c -75,-15 -152,-21 -228,-18 -151,7 -299,44 -437,102 -68,28 -134,62 -198,101 -55,33 -108,70 -157,112 -33,-108 -63,-223 -85,-340 20,-24 40,-47 63,-67 31,-28 68,-47 106,-63 19,-8 39,-14 60,-19 20,-6 40,-10 61,-15 42,-8 84,-14 127,-20 86,-11 172,-19 259,-27 l 65,-6 33,-3 31,-2 c 43,-3 85,-5 127,-3 168,3 335,43 482,126 36,22 71,45 105,71 33,26 64,56 93,87 18,20 34,41 50,63 0,1 0,1 1,2 2,3 5,7 7,10 2,21 3,37 4,48 -10,77 -30,139 -51,202 -3,-4 -5,-7 -8,-11 z m -21,2317 c -47,4 -95,11 -142,20 -7,1 -14,3 -21,4 -8,-28 -18,-57 -28,-86 7,0 15,0 23,-1 50,-3 101,-8 150,-16 50,-7 100,-16 149,-27 46,-10 91,-23 136,-39 6,48 10,96 12,142 -46,-5 -91,-6 -136,-6 -48,1 -96,4 -143,9 z m 25,132 c -45,2 -89,6 -134,13 -7,1 -14,2 -21,3 -7,-28 -14,-57 -22,-86 5,0 10,0 15,0 47,0 94,-3 142,-8 47,-5 95,-11 142,-20 44,-9 88,-19 132,-33 2,48 3,95 3,142 -41,-7 -81,-11 -122,-12 -45,-2 -90,-2 -135,1 z m 26,132 c -42,0 -85,2 -127,6 -11,1 -21,2 -32,3 -4,-28 -9,-57 -15,-86 6,0 11,0 16,1 45,1 90,1 135,-2 45,-2 90,-6 134,-12 40,-6 80,-14 120,-25 -1,46 -4,92 -7,136 -32,-7 -65,-11 -97,-15 -42,-4 -85,-6 -127,-6 z m 26,133 c -40,-3 -80,-3 -120,-2 -18,1 -35,2 -52,4 -2,-30 -5,-59 -8,-89 9,1 18,2 27,3 42,4 84,6 127,6 42,0 85,-2 127,-6 32,-3 64,-7 96,-14 -4,43 -9,84 -15,124 -21,-5 -42,-9 -63,-13 -40,-6 -79,-11 -119,-13 z m 26,132 c -38,-5 -75,-8 -113,-9 -27,0 -55,0 -82,3 0,-31 0,-63 -2,-95 16,4 32,7 48,10 40,6 79,11 119,13 40,3 80,3 120,2 21,-1 42,-2 62,-5 -5,37 -12,73 -19,108 -7,-2 -15,-4 -22,-6 -37,-9 -74,-16 -111,-21 z m -48,108 c -35,-5 -70,-8 -106,-10 -15,0 -30,0 -45,0 2,-28 3,-57 4,-87 25,9 51,16 76,23 37,9 74,15 112,20 37,5 74,8 112,9 7,0 13,0 20,0 -7,28 -13,55 -20,81 -16,-5 -32,-10 -48,-14 -35,-10 -70,-17 -105,-22 z m -47,108 c -33,-5 -66,-9 -100,-10 -5,-1 -10,-1 -15,-1 3,-25 6,-51 8,-77 14,5 28,9 42,13 34,9 68,16 104,21 35,5 71,9 107,10 15,1 30,1 46,0 -9,31 -18,61 -28,90 -22,-9 -44,-17 -66,-24 -32,-9 -65,-16 -98,-22 z m -47,108 c -28,-5 -57,-9 -86,-11 5,-22 9,-46 12,-69 5,1 9,2 14,4 32,9 65,17 98,22 33,6 66,9 100,11 22,1 45,1 67,-1 -12,34 -24,68 -37,99 -25,-13 -51,-23 -77,-32 -30,-9 -60,-17 -91,-23 z m -47,108 c -21,-4 -42,-7 -63,-10 5,-21 10,-43 15,-65 28,9 56,16 85,21 31,6 62,10 93,11 27,2 54,2 82,-1 -15,37 -31,73 -46,107 -27,-17 -54,-29 -81,-39 -28,-10 -57,-18 -85,-24 z m 45,-1172 c 53,-10 105,-21 157,-35 44,-12 88,-25 131,-41 8,47 15,93 20,138 -48,-3 -95,-2 -142,1 -50,3 -100,8 -150,15 -50,8 -100,17 -149,28 -10,2 -21,5 -31,7 -11,-28 -23,-57 -37,-86 15,-1 29,-3 43,-4 53,-6 106,-14 158,-23 z m -46,-265 c 57,-15 114,-31 171,-49 33,-11 67,-23 100,-36 4,17 9,34 14,52 6,23 12,45 17,68 -42,3 -83,8 -125,14 -55,8 -111,18 -165,30 -55,12 -110,26 -164,42 -26,8 -52,16 -77,25 -17,-30 -36,-61 -55,-92 37,-4 74,-10 110,-17 59,-10 116,-23 174,-37 z m -23,-133 c 59,-17 119,-35 178,-56 27,-10 54,-20 81,-31 9,37 19,74 29,113 -35,5 -70,10 -105,16 -58,11 -116,23 -173,38 -58,14 -115,31 -171,49 -38,12 -75,25 -112,40 -20,-32 -42,-64 -64,-97 52,-7 104,-16 155,-27 61,-13 122,-28 182,-45 z m -263,-83 193,-53 c 64,-17 127,-34 192,-49 32,-8 64,-15 96,-19 4,-1 7,-1 11,-1 7,29 15,60 23,91 -29,5 -57,11 -86,17 -61,13 -121,28 -181,45 -60,17 -120,35 -178,56 -51,18 -101,37 -150,60 -23,-34 -48,-69 -73,-104 19,-6 38,-11 57,-16 z m -118,-108 224,-67 c 74,-21 149,-43 224,-63 38,-10 75,-19 113,-26 5,-1 10,-2 15,-3 8,38 18,78 28,119 -2,0 -4,0 -5,0 -35,-2 -69,0 -103,3 -68,8 -135,22 -200,40 -65,18 -129,39 -192,65 -31,13 -62,27 -92,42 -15,8 -30,16 -45,25 -3,2 -6,4 -9,6 -26,-35 -52,-71 -78,-106 2,-1 5,-2 7,-2 z m 140,-231 c 75,-21 151,-41 227,-57 38,-8 76,-16 114,-21 20,-2 41,-4 61,-5 8,42 18,85 28,131 -4,0 -8,0 -12,0 -40,1 -79,5 -119,11 -78,12 -155,31 -231,53 -75,23 -150,48 -222,79 -37,14 -73,31 -109,48 -4,2 -8,4 -13,7 -32,-43 -64,-86 -97,-128 49,-18 99,-34 149,-51 75,-23 149,-46 224,-67 z m -327,-117 c 85,-31 172,-57 259,-80 88,-23 176,-43 265,-58 45,-8 90,-14 135,-17 11,-1 23,-2 34,-2 9,54 20,113 33,176 -20,-3 -39,-5 -59,-6 -40,-2 -80,0 -120,4 -80,9 -158,26 -234,48 -77,21 -152,48 -225,80 -36,15 -72,33 -107,52 -13,7 -26,15 -39,23 -20,-27 -41,-54 -61,-80 -18,-22 -35,-44 -52,-66 15,-8 30,-16 45,-23 41,-19 84,-35 126,-51 z m -99,-200 c 87,-34 177,-61 268,-83 91,-22 183,-41 276,-54 46,-7 93,-12 140,-14 23,-2 46,-1 70,0 l 10,2 c 7,53 14,109 24,170 -10,-1 -20,-2 -30,-3 -47,-3 -93,-2 -140,2 -92,7 -184,24 -273,48 -90,23 -178,54 -262,93 -42,19 -83,42 -123,67 -14,10 -29,20 -43,31 -40,-52 -80,-104 -118,-155 24,-17 48,-32 73,-46 41,-22 84,-41 128,-58 z m -109,-219 c 47,-16 94,-31 142,-43 48,-12 96,-23 145,-31 48,-10 98,-17 147,-24 49,-7 98,-12 148,-17 49,-4 99,-8 149,-9 25,-1 50,-1 74,0 13,1 25,2 37,4 4,0 8,1 12,2 5,57 10,114 17,173 -2,0 -4,-1 -6,-2 -23,-6 -48,-9 -72,-12 -48,-4 -96,-5 -144,-2 -97,6 -192,21 -286,45 -93,23 -185,55 -272,96 -43,21 -85,46 -124,75 -23,18 -46,37 -66,59 -46,-62 -89,-121 -128,-177 27,-31 59,-56 93,-76 43,-25 88,-44 134,-61 z m 177,-329 c 14,-3 28,-4 42,-7 l 21,-3 21,-2 c 14,-1 28,-3 42,-3 14,-1 28,-1 42,-2 56,-1 112,2 168,9 111,15 220,48 330,89 l 3,33 c 2,31 5,61 7,90 -3,-1 -6,-2 -9,-3 -12,-5 -24,-8 -36,-11 -25,-6 -51,-9 -76,-12 -51,-5 -101,-7 -152,-7 -51,0 -102,4 -152,9 -51,5 -101,12 -151,21 -50,10 -100,21 -149,36 -49,15 -97,31 -144,53 -47,21 -92,46 -133,78 -32,26 -62,57 -82,93 -60,-88 -109,-168 -141,-239 74,-45 149,-85 226,-120 105,-47 213,-83 323,-102 z m -798,-447 c 25,-12 51,-24 76,-36 34,-14 67,-28 100,-42 67,-27 135,-51 203,-72 136,-42 276,-70 415,-76 l 52,-1 c 18,0 35,1 52,2 18,0 35,2 52,4 l 26,2 26,4 25,5 c 9,1 18,2 26,5 l 51,11 c 33,11 66,20 98,34 33,11 64,28 96,43 l 46,26 c 8,5 16,8 23,14 l 22,15 c 51,31 96,70 143,110 -2,4 -3,9 -5,14 -17,49 -34,99 -47,155 -99,-68 -212,-118 -331,-148 -32,-7 -64,-15 -96,-18 -32,-6 -65,-8 -98,-10 -16,-1 -32,-1 -49,-1 -16,-1 -32,0 -49,0 -33,1 -65,5 -98,8 -129,18 -256,57 -371,115 -58,29 -114,62 -166,100 -26,19 -51,39 -75,60 -9,8 -17,16 -26,24 -38,-100 -82,-219 -121,-347 z m 417,232 c 116,-43 235,-73 355,-89 30,-3 60,-7 90,-8 30,-3 61,-3 91,-4 61,0 121,5 182,12 115,15 229,44 343,80 -17,77 -26,166 -16,281 l 2,21 c -91,-74 -199,-129 -315,-159 l -45,-11 c -15,-3 -31,-5 -46,-7 -15,-3 -30,-5 -46,-6 -15,-1 -30,-2 -46,-3 -62,-2 -124,4 -184,14 -122,21 -238,68 -342,130 -52,31 -101,67 -147,106 -19,17 -38,35 -56,53 -4,-9 -8,-18 -11,-27 -11,-32 -29,-76 -49,-127 -15,-37 -32,-79 -49,-125 39,-21 78,-41 118,-60 56,-26 113,-50 171,-71 z m 788,1806 c 24,-2 48,-5 72,-8 56,-9 111,-19 166,-31 55,-12 110,-26 164,-42 40,-12 79,-24 119,-40 10,44 19,88 26,130 -46,0 -92,3 -137,8 -53,6 -106,14 -158,23 -53,10 -105,21 -157,35 -16,4 -33,9 -49,14 -8,-15 -15,-31 -23,-46 -7,-14 -15,-28 -23,-43 z m 75,1591 c -12,-4 -24,-7 -36,-9 9,-20 17,-40 26,-60 14,5 28,9 42,13 25,7 50,12 75,14 25,3 51,4 79,0 -22,-18 -45,-30 -68,-41 -23,-10 -47,-19 -71,-25 -13,-4 -26,-7 -38,-9 7,-20 14,-40 22,-61 16,6 33,11 50,15 26,6 53,10 81,13 27,2 55,3 84,-2 -23,-17 -49,-29 -74,-40 -26,-10 -52,-18 -78,-24 -16,-4 -32,-7 -48,-10 3,-8 6,-17 9,-26 3,-12 7,-24 10,-36 21,7 43,12 64,17 29,6 58,10 88,12 29,2 59,2 89,-3 -7,16 -15,32 -22,47 -53,107 -110,199 -164,277 -18,-15 -36,-26 -55,-36 -21,-11 -43,-19 -65,-26 z m -47,108 c -13,-4 -26,-8 -40,-11 10,-19 20,-39 30,-60 13,5 27,11 41,15 22,7 45,12 68,15 21,3 42,4 64,1 -24,34 -47,65 -69,93 -11,-10 -23,-18 -36,-26 -18,-11 -38,-20 -58,-27 z m -97,93 c 10,-18 22,-39 34,-61 15,7 30,14 45,20 20,7 41,12 62,16 12,1 24,2 36,3 -22,28 -43,53 -62,74 -5,-3 -9,-6 -13,-9 -16,-11 -33,-20 -51,-27 -17,-7 -34,-12 -51,-16 z m -23,37 c 0,1 1,1 1,1 17,12 34,21 52,28 18,8 36,13 56,17 h 1 c -11,11 -20,22 -29,31 -32,-27 -74,-35 -107,-37 7,-10 16,-24 26,-40 z m 325,-5343 c 31,48 67,92 106,132 41,42 85,79 131,113 77,55 160,102 246,140 39,91 185,522 206,584 -2,13 -9,26 -19,41 l -2,1 v 1 c -22,27 -59,57 -109,85 -63,37 -134,65 -195,83 16,-454 -163,-657 -302,-915 -33,-95 -52,-184 -62,-265 z m 3691,-1571 c -251,-456 -756,-793 -1502,-1002 -607,-169 -1242,-218 -1622,-247 -123,-10 -251,-20 -305,-30 l -3,-3 c -12,-13 -24,-27 -37,-41 -7,-8 -13,-15 -19,-22 l -58,-68 c -17,-21 -37,-41 -56,-62 l -51,-51 -49,-40 -2,-1 c -5,-4 -10,-7 -15,-11 l -6,-4 c -5,-3 -9,-6 -14,-9 -9,-6 -19,-13 -31,-19 l -55,-29 -60,-23 c -9,-3 -18,-6 -26,-8 l -70,-19 -74,-13 c -122,-17 -240,-15 -340,-12 l -132,-5 h -44 c -59,0 -121,2 -183,8 l -70,9 c -5,1 -11,2 -16,3 l -54,11 c -11,3 -23,6 -33,10 -5,1 -10,3 -16,5 l -22,7 c -7,2 -13,5 -19,7 -2,1 -4,2 -8,4 -4,2 -9,4 -14,6 -11,5 -21,9 -33,16 l -43,26 -2,1 c -10,8 -20,15 -29,23 l -11,9 c -47,40 -84,82 -119,124 l -66,76 c -6,7 -12,14 -18,20 -3,3 -6,7 -9,9 -3,4 -7,8 -10,12 -6,6 -12,12 -18,18 l -37,35 c -52,11 -185,21 -303,30 -372,30 -995,78 -1592,248 -733,209 -1231,546 -1482,1002 l -26,48 34,42 c 450,566 483,863 507,1079 17,146 31,272 174,396 131,113 369,223 821,379 686,238 1169,579 1329,701 -111,144 -511,413 -890,462 -292,37 -582,-95 -705,-193 -45,-35 -105,-35 -150,0 -45,34 -60,93 -38,145 80,184 353,408 719,482 65,13 144,20 228,20 446,0 1090,-181 1447,-690 3,0 7,0 10,0 69,289 175,555 239,715 20,49 37,92 48,122 71,199 281,469 504,758 194,251 395,510 505,724 19,39 38,78 54,118 l 19,46 c 9,23 17,46 25,70 l 15,48 c 7,23 13,47 19,71 l 10,45 c 49,234 40,480 -26,730 l -10,37 c -3,8 -5,17 -8,25 -4,15 -8,29 -13,43 l -13,38 c -94,268 -222,441 -224,443 -15,20 -55,73 -27,130 28,56 86,56 125,56 36,0 48,3 51,4 1,1 1,1 1,1 l 32,132 101,-89 c 10,-9 251,-222 446,-612 179,-359 352,-942 152,-1681 -187,-695 -208,-939 -233,-1248 l -5,-58 c -15,-175 20,-277 58,-386 27,-78 55,-159 68,-267 364,493 973,670 1427,670 71,-1 138,-5 199,-14 402,-60 652,-322 723,-483 22,-52 7,-111 -38,-145 -45,-35 -105,-35 -150,0 -123,98 -413,230 -705,193 -389,-50 -797,-342 -906,-480 165,-118 660,-445 1345,-683 452,-156 690,-266 821,-379 143,-124 157,-250 174,-396 24,-216 57,-513 507,-1079 l 34,-42 z"
     id="path1842"
     transform="translate(-2180,-1201)" /></g></svg>
